<svg xmlns="http://www.w3.org/2000/svg" width="24" height="24" viewBox="0 0 24 24" fill="none">
  <path
    d="M5.25 4.75C5.25 4.33579 5.58579 4 6 4H9C9.41421 4 9.75 4.33579 9.75 4.75V18.1328C9.75 18.7398 9.06313 19.092 8.57076 18.7375L7.06229 17.6514C6.79966 17.4624 6.45034 17.4624 6.18771 17.6514L4.67924 18.7375C4.18687 19.092 3.5 18.7398 3.5 18.1328V4.75C3.5 4.33579 3.83579 4 4.25 4H5.25Z"
    stroke="currentColor"
    stroke-width="1.7"
    stroke-linejoin="round"
  />
  <path
    d="M18.75 19.25C18.75 19.6642 18.4142 20 18 20H15C14.5858 20 14.25 19.6642 14.25 19.25V5.86719C14.25 5.26018 14.9369 4.90801 15.4292 5.26253L16.9377 6.34856C17.2003 6.53759 17.5497 6.53759 17.8123 6.34856L19.3208 5.26253C19.8131 4.90801 20.5 5.26018 20.5 5.86719V19.25C20.5 19.6642 20.1642 20 19.75 20H18.75Z"
    stroke="currentColor"
    stroke-width="1.7"
    stroke-linejoin="round"
  />
</svg>
