<svg xmlns="http://www.w3.org/2000/svg" width="1280" height="760" viewBox="0 0 1280 760">
  <defs>
    <linearGradient id="bg" x1="0" y1="0" x2="1" y2="1">
      <stop offset="0" stop-color="#120f1f"/>
      <stop offset="1" stop-color="#08060f"/>
    </linearGradient>
    <linearGradient id="hero" x1="0" y1="0" x2="1" y2="1">
      <stop offset="0" stop-color="#392258"/>
      <stop offset="1" stop-color="#171023"/>
    </linearGradient>
    <filter id="shadow" x="-20%" y="-20%" width="140%" height="140%">
      <feDropShadow dx="0" dy="18" stdDeviation="18" flood-color="#000" flood-opacity=".35"/>
    </filter>
  </defs>
  <rect width="1280" height="760" fill="url(#bg)"/>
  <circle cx="1110" cy="180" r="310" fill="#bd7cff" opacity=".16"/>
  <circle cx="220" cy="680" r="250" fill="#75f0c0" opacity=".07"/>
  <rect x="90" y="54" width="1100" height="650" rx="22" fill="#10101a" filter="url(#shadow)"/>
  <rect x="90" y="54" width="60" height="650" rx="22" fill="#0b0b13"/>
  <text x="180" y="100" fill="#d9c0ff" font-family="Inter,Arial,sans-serif" font-size="17" font-weight="800" letter-spacing="1.2">BOOKMARKS</text>
  <g transform="translate(180 136)">
    <rect width="340" height="94" rx="14" fill="url(#hero)" stroke="#8c79a8"/>
    <text x="18" y="30" fill="#f6efff" font-family="Inter,Arial,sans-serif" font-size="20" font-weight="800">Navigator</text>
    <rect x="18" y="52" width="82" height="27" rx="14" fill="#302640" stroke="#7f6a9a"/>
    <text x="30" y="70" fill="#fff" font-family="Inter,Arial,sans-serif" font-size="13" font-weight="700">Compact</text>
    <rect x="110" y="52" width="78" height="27" rx="14" fill="#302640" stroke="#7f6a9a"/>
    <text x="127" y="70" fill="#fff" font-family="Inter,Arial,sans-serif" font-size="13" font-weight="700">English</text>
    <circle cx="212" cy="65" r="14" fill="#302640" stroke="#7f6a9a"/>
    <path d="M212 56a9 9 0 0 1 0 18z" fill="#f6efff"/>
  </g>
  <g transform="translate(375 219)">
    <rect width="226" height="362" rx="16" fill="#11121c" stroke="#8c79a8" filter="url(#shadow)"/>
    <g font-family="Inter,Arial,sans-serif" font-size="15" font-weight="700">
      <rect x="10" y="10" width="206" height="34" rx="10" fill="#2b2440"/>
      <circle cx="28" cy="27" r="8" fill="url(#systemSwatch)"/>
      <text x="48" y="32" fill="#f6efff">Follow Editor</text>
      <circle cx="28" cy="65" r="8" fill="#141520"/><rect x="20" y="57" width="16" height="16" rx="8" fill="none" stroke="#7d92ff"/>
      <text x="48" y="70" fill="#f6efff">Dark</text>
      <circle cx="28" cy="103" r="8" fill="#f5f7fb"/><rect x="20" y="95" width="16" height="16" rx="8" fill="none" stroke="#5269d8"/>
      <text x="48" y="108" fill="#f6efff">Light</text>
      <circle cx="28" cy="141" r="8" fill="#101827"/><path d="M28 133a8 8 0 0 1 0 16z" fill="#88c0d0"/>
      <text x="48" y="146" fill="#f6efff">Aurora</text>
      <circle cx="28" cy="179" r="8" fill="#181825"/><path d="M28 171a8 8 0 0 1 0 16z" fill="#cba6f7"/>
      <text x="48" y="184" fill="#f6efff">Coffee</text>
      <circle cx="28" cy="217" r="8" fill="#120f1f"/><path d="M28 209a8 8 0 0 1 0 16z" fill="#bd7cff"/>
      <text x="48" y="222" fill="#f6efff">Purple Night</text>
      <circle cx="28" cy="255" r="8" fill="#000"/><path d="M28 247a8 8 0 0 1 0 16z" fill="#ffff00"/>
      <text x="48" y="260" fill="#f6efff">High Contrast</text>
      <circle cx="28" cy="293" r="8" fill="#fdf6e3"/><path d="M28 285a8 8 0 0 1 0 16z" fill="#268bd2"/>
      <text x="48" y="298" fill="#f6efff">Sunlit</text>
      <circle cx="28" cy="331" r="8" fill="#ffffff"/><path d="M28 323a8 8 0 0 1 0 16z" fill="#0969da"/>
      <text x="48" y="336" fill="#f6efff">Clean Light</text>
    </g>
  </g>
  <defs>
    <conicGradient id="systemSwatch">
      <stop offset="0" stop-color="#7d92ff"/>
      <stop offset=".25" stop-color="#f5f7fb"/>
      <stop offset=".5" stop-color="#141520"/>
      <stop offset=".75" stop-color="#88c0d0"/>
      <stop offset="1" stop-color="#7d92ff"/>
    </conicGradient>
  </defs>
  <g transform="translate(690 150)">
    <text x="0" y="0" fill="#ffffff" font-family="Inter,Arial,sans-serif" font-size="42" font-weight="800">Sidebar themes</text>
    <text x="0" y="48" fill="#cab9e9" font-family="Inter,Arial,sans-serif" font-size="22">Pick a palette for the JumpJump sidebar.</text>
    <g transform="translate(0 114)" font-family="Inter,Arial,sans-serif" font-size="19">
      <rect x="0" y="0" width="450" height="74" rx="16" fill="#211a35" stroke="#604a82"/>
      <circle cx="38" cy="37" r="13" fill="#bd7cff"/>
      <text x="70" y="32" fill="#f6efff" font-weight="800">Purple Night</text>
      <text x="70" y="56" fill="#b9a7d8">Dracula-inspired deep purple</text>
      <rect x="0" y="92" width="450" height="74" rx="16" fill="#000000" stroke="#ffff00"/>
      <circle cx="38" cy="129" r="13" fill="#ffff00"/>
      <text x="70" y="124" fill="#ffffff" font-weight="800">High Contrast</text>
      <text x="70" y="148" fill="#d7d7d7">Sharp borders and maximum readability</text>
      <rect x="0" y="184" width="450" height="74" rx="16" fill="#151f30" stroke="#88c0d0"/>
      <circle cx="38" cy="221" r="13" fill="#88c0d0"/>
      <text x="70" y="216" fill="#eceff4" font-weight="800">Aurora / Coffee / Sunlit</text>
      <text x="70" y="240" fill="#a9b7cc">Curated editor-inspired palettes</text>
    </g>
  </g>
</svg>
